<mxfile host="app.diagrams.net" modified="2022-07-29T06:50:13.231Z" agent="5.0 (Macintosh; Intel Mac OS X 10_15_7) AppleWebKit/605.1.15 (KHTML, like Gecko) Version/15.4 Safari/605.1.15" etag="GHsR-kTxghEYDXMik5aL" version="20.2.2" type="github">
  <diagram name="Page-1" id="0783ab3e-0a74-02c8-0abd-f7b4e66b4bec">
    <mxGraphModel dx="1636" dy="825" grid="1" gridSize="10" guides="1" tooltips="1" connect="1" arrows="1" fold="1" page="1" pageScale="1" pageWidth="2339" pageHeight="3300" background="none" math="0" shadow="0">
      <root>
        <mxCell id="0" />
        <mxCell id="1" parent="0" />
        <mxCell id="1c1d494c118603dd-1" value="&lt;font style=&quot;font-size: 16px;&quot;&gt;生命周期&lt;/font&gt;" style="swimlane;html=1;childLayout=stackLayout;startSize=20;rounded=0;shadow=0;comic=0;labelBackgroundColor=none;strokeWidth=1;fontFamily=Verdana;fontSize=12;align=center;" parent="1" vertex="1">
          <mxGeometry x="40" y="30" width="1890" height="980" as="geometry" />
        </mxCell>
        <mxCell id="1c1d494c118603dd-2" value="Init" style="swimlane;html=1;startSize=20;" parent="1c1d494c118603dd-1" vertex="1">
          <mxGeometry y="20" width="250" height="960" as="geometry" />
        </mxCell>
        <mxCell id="60571a20871a0731-4" value="" style="ellipse;whiteSpace=wrap;html=1;rounded=0;shadow=0;comic=0;labelBackgroundColor=none;strokeWidth=1;fillColor=#000000;fontFamily=Verdana;fontSize=12;align=center;" parent="1c1d494c118603dd-2" vertex="1">
          <mxGeometry x="80" y="40" width="40" height="40" as="geometry" />
        </mxCell>
        <mxCell id="b0oqLk7NNYaLOgdpKb4l-7" value="" style="edgeStyle=orthogonalEdgeStyle;rounded=0;orthogonalLoop=1;jettySize=auto;html=1;fontSize=12;" edge="1" parent="1c1d494c118603dd-2" source="60571a20871a0731-8" target="b0oqLk7NNYaLOgdpKb4l-4">
          <mxGeometry relative="1" as="geometry" />
        </mxCell>
        <mxCell id="60571a20871a0731-8" value="容器初始化" style="rounded=1;whiteSpace=wrap;html=1;shadow=0;comic=0;labelBackgroundColor=none;strokeWidth=1;fontFamily=Verdana;fontSize=12;align=center;arcSize=50;" parent="1c1d494c118603dd-2" vertex="1">
          <mxGeometry x="50" y="120" width="100" height="30" as="geometry" />
        </mxCell>
        <mxCell id="1c1d494c118603dd-27" style="edgeStyle=orthogonalEdgeStyle;rounded=0;html=1;labelBackgroundColor=none;startArrow=none;startFill=0;startSize=5;endArrow=classicThin;endFill=1;endSize=5;jettySize=auto;orthogonalLoop=1;strokeWidth=1;fontFamily=Verdana;fontSize=12" parent="1c1d494c118603dd-2" source="60571a20871a0731-4" target="60571a20871a0731-8" edge="1">
          <mxGeometry relative="1" as="geometry" />
        </mxCell>
        <mxCell id="b0oqLk7NNYaLOgdpKb4l-11" value="" style="edgeStyle=orthogonalEdgeStyle;rounded=0;orthogonalLoop=1;jettySize=auto;html=1;fontSize=12;" edge="1" parent="1c1d494c118603dd-2" source="b0oqLk7NNYaLOgdpKb4l-4" target="b0oqLk7NNYaLOgdpKb4l-10">
          <mxGeometry relative="1" as="geometry" />
        </mxCell>
        <mxCell id="b0oqLk7NNYaLOgdpKb4l-4" value="默认样式设置" style="rounded=1;whiteSpace=wrap;html=1;shadow=0;comic=0;labelBackgroundColor=none;strokeWidth=1;fontFamily=Verdana;fontSize=12;align=center;arcSize=50;" vertex="1" parent="1c1d494c118603dd-2">
          <mxGeometry x="50" y="190" width="100" height="30" as="geometry" />
        </mxCell>
        <mxCell id="b0oqLk7NNYaLOgdpKb4l-10" value="默认行为设置" style="rounded=1;whiteSpace=wrap;html=1;shadow=0;comic=0;labelBackgroundColor=none;strokeWidth=1;fontFamily=Verdana;fontSize=12;align=center;arcSize=50;" vertex="1" parent="1c1d494c118603dd-2">
          <mxGeometry x="50" y="280" width="100" height="30" as="geometry" />
        </mxCell>
        <mxCell id="b0oqLk7NNYaLOgdpKb4l-15" value="聊天util初始化" style="rounded=1;whiteSpace=wrap;html=1;shadow=0;comic=0;labelBackgroundColor=none;strokeWidth=1;fontFamily=Verdana;fontSize=12;align=center;arcSize=50;" vertex="1" parent="1c1d494c118603dd-2">
          <mxGeometry x="50" y="440" width="100" height="30" as="geometry" />
        </mxCell>
        <mxCell id="b0oqLk7NNYaLOgdpKb4l-17" value="客服Util初始化" style="rounded=1;whiteSpace=wrap;html=1;shadow=0;comic=0;labelBackgroundColor=none;strokeWidth=1;fontFamily=Verdana;fontSize=12;align=center;arcSize=50;" vertex="1" parent="1c1d494c118603dd-2">
          <mxGeometry x="50" y="520" width="100" height="30" as="geometry" />
        </mxCell>
        <mxCell id="b0oqLk7NNYaLOgdpKb4l-18" value="" style="edgeStyle=orthogonalEdgeStyle;rounded=0;orthogonalLoop=1;jettySize=auto;html=1;fontSize=12;" edge="1" parent="1c1d494c118603dd-2" source="b0oqLk7NNYaLOgdpKb4l-15" target="b0oqLk7NNYaLOgdpKb4l-17">
          <mxGeometry relative="1" as="geometry" />
        </mxCell>
        <mxCell id="b0oqLk7NNYaLOgdpKb4l-19" value="监听相关通知" style="rounded=1;whiteSpace=wrap;html=1;shadow=0;comic=0;labelBackgroundColor=none;strokeWidth=1;fontFamily=Verdana;fontSize=12;align=center;arcSize=50;" vertex="1" parent="1c1d494c118603dd-2">
          <mxGeometry x="50" y="610" width="100" height="30" as="geometry" />
        </mxCell>
        <mxCell id="b0oqLk7NNYaLOgdpKb4l-20" value="" style="edgeStyle=orthogonalEdgeStyle;rounded=0;orthogonalLoop=1;jettySize=auto;html=1;fontSize=12;" edge="1" parent="1c1d494c118603dd-2" source="b0oqLk7NNYaLOgdpKb4l-17" target="b0oqLk7NNYaLOgdpKb4l-19">
          <mxGeometry relative="1" as="geometry" />
        </mxCell>
        <mxCell id="1c1d494c118603dd-4" value="viewdidLoad" style="swimlane;html=1;startSize=20;" parent="1c1d494c118603dd-1" vertex="1">
          <mxGeometry x="250" y="20" width="250" height="960" as="geometry" />
        </mxCell>
        <mxCell id="b0oqLk7NNYaLOgdpKb4l-21" value="手势冲突兼容" style="rounded=1;whiteSpace=wrap;html=1;shadow=0;comic=0;labelBackgroundColor=none;strokeWidth=1;fontFamily=Verdana;fontSize=12;align=center;arcSize=50;" vertex="1" parent="1c1d494c118603dd-4">
          <mxGeometry x="70" y="120" width="100" height="30" as="geometry" />
        </mxCell>
        <mxCell id="b0oqLk7NNYaLOgdpKb4l-29" value="" style="edgeStyle=orthogonalEdgeStyle;rounded=0;orthogonalLoop=1;jettySize=auto;html=1;fontSize=12;" edge="1" parent="1c1d494c118603dd-4" source="b0oqLk7NNYaLOgdpKb4l-25" target="b0oqLk7NNYaLOgdpKb4l-28">
          <mxGeometry relative="1" as="geometry" />
        </mxCell>
        <mxCell id="b0oqLk7NNYaLOgdpKb4l-25" value="cell 跟消息绑定注册" style="rounded=1;whiteSpace=wrap;html=1;shadow=0;comic=0;labelBackgroundColor=none;strokeWidth=1;fontFamily=Verdana;fontSize=12;align=center;arcSize=50;" vertex="1" parent="1c1d494c118603dd-4">
          <mxGeometry x="55" y="240" width="130" height="30" as="geometry" />
        </mxCell>
        <mxCell id="b0oqLk7NNYaLOgdpKb4l-28" value="消息选择代理注册" style="rounded=1;whiteSpace=wrap;html=1;shadow=0;comic=0;labelBackgroundColor=none;strokeWidth=1;fontFamily=Verdana;fontSize=12;align=center;arcSize=50;" vertex="1" parent="1c1d494c118603dd-4">
          <mxGeometry x="55" y="300" width="130" height="30" as="geometry" />
        </mxCell>
        <mxCell id="b0oqLk7NNYaLOgdpKb4l-35" value="" style="edgeStyle=orthogonalEdgeStyle;rounded=0;orthogonalLoop=1;jettySize=auto;html=1;fontSize=12;" edge="1" parent="1c1d494c118603dd-4" source="b0oqLk7NNYaLOgdpKb4l-32" target="b0oqLk7NNYaLOgdpKb4l-34">
          <mxGeometry relative="1" as="geometry" />
        </mxCell>
        <mxCell id="b0oqLk7NNYaLOgdpKb4l-32" value="监听撤回通知" style="rounded=1;whiteSpace=wrap;html=1;shadow=0;comic=0;labelBackgroundColor=none;strokeWidth=1;fontFamily=Verdana;fontSize=12;align=center;arcSize=50;" vertex="1" parent="1c1d494c118603dd-4">
          <mxGeometry x="55" y="440" width="130" height="30" as="geometry" />
        </mxCell>
        <mxCell id="b0oqLk7NNYaLOgdpKb4l-34" value="刘海屏适配" style="rounded=1;whiteSpace=wrap;html=1;shadow=0;comic=0;labelBackgroundColor=none;strokeWidth=1;fontFamily=Verdana;fontSize=12;align=center;arcSize=50;" vertex="1" parent="1c1d494c118603dd-4">
          <mxGeometry x="55" y="520" width="130" height="30" as="geometry" />
        </mxCell>
        <mxCell id="b0oqLk7NNYaLOgdpKb4l-30" value="监听cell发送状态" style="rounded=1;whiteSpace=wrap;html=1;shadow=0;comic=0;labelBackgroundColor=none;strokeWidth=1;fontFamily=Verdana;fontSize=12;align=center;arcSize=50;" vertex="1" parent="1c1d494c118603dd-4">
          <mxGeometry x="55" y="370" width="130" height="30" as="geometry" />
        </mxCell>
        <mxCell id="b0oqLk7NNYaLOgdpKb4l-31" value="" style="edgeStyle=orthogonalEdgeStyle;rounded=0;orthogonalLoop=1;jettySize=auto;html=1;fontSize=12;" edge="1" parent="1c1d494c118603dd-4" source="b0oqLk7NNYaLOgdpKb4l-28" target="b0oqLk7NNYaLOgdpKb4l-30">
          <mxGeometry relative="1" as="geometry" />
        </mxCell>
        <mxCell id="b0oqLk7NNYaLOgdpKb4l-33" value="" style="edgeStyle=orthogonalEdgeStyle;rounded=0;orthogonalLoop=1;jettySize=auto;html=1;fontSize=12;" edge="1" parent="1c1d494c118603dd-4" source="b0oqLk7NNYaLOgdpKb4l-30" target="b0oqLk7NNYaLOgdpKb4l-32">
          <mxGeometry relative="1" as="geometry" />
        </mxCell>
        <mxCell id="b0oqLk7NNYaLOgdpKb4l-39" value="" style="edgeStyle=orthogonalEdgeStyle;rounded=0;orthogonalLoop=1;jettySize=auto;html=1;fontSize=12;" edge="1" parent="1c1d494c118603dd-4" source="b0oqLk7NNYaLOgdpKb4l-36" target="b0oqLk7NNYaLOgdpKb4l-38">
          <mxGeometry relative="1" as="geometry" />
        </mxCell>
        <mxCell id="b0oqLk7NNYaLOgdpKb4l-36" value="消息提示音处理" style="rounded=1;whiteSpace=wrap;html=1;shadow=0;comic=0;labelBackgroundColor=none;strokeWidth=1;fontFamily=Verdana;fontSize=12;align=center;arcSize=50;" vertex="1" parent="1c1d494c118603dd-4">
          <mxGeometry x="55" y="590" width="130" height="30" as="geometry" />
        </mxCell>
        <mxCell id="b0oqLk7NNYaLOgdpKb4l-37" value="" style="edgeStyle=orthogonalEdgeStyle;rounded=0;orthogonalLoop=1;jettySize=auto;html=1;fontSize=12;" edge="1" parent="1c1d494c118603dd-4" source="b0oqLk7NNYaLOgdpKb4l-34" target="b0oqLk7NNYaLOgdpKb4l-36">
          <mxGeometry relative="1" as="geometry" />
        </mxCell>
        <mxCell id="b0oqLk7NNYaLOgdpKb4l-38" value="会话提取" style="rounded=1;whiteSpace=wrap;html=1;shadow=0;comic=0;labelBackgroundColor=none;strokeWidth=1;fontFamily=Verdana;fontSize=12;align=center;arcSize=50;" vertex="1" parent="1c1d494c118603dd-4">
          <mxGeometry x="55" y="660" width="130" height="30" as="geometry" />
        </mxCell>
        <mxCell id="b0oqLk7NNYaLOgdpKb4l-40" value="数据源和会话绑定" style="rounded=1;whiteSpace=wrap;html=1;shadow=0;comic=0;labelBackgroundColor=none;strokeWidth=1;fontFamily=Verdana;fontSize=12;align=center;arcSize=50;" vertex="1" parent="1c1d494c118603dd-4">
          <mxGeometry x="55" y="730" width="130" height="30" as="geometry" />
        </mxCell>
        <mxCell id="b0oqLk7NNYaLOgdpKb4l-41" value="" style="edgeStyle=orthogonalEdgeStyle;rounded=0;orthogonalLoop=1;jettySize=auto;html=1;fontSize=12;" edge="1" parent="1c1d494c118603dd-4" source="b0oqLk7NNYaLOgdpKb4l-38" target="b0oqLk7NNYaLOgdpKb4l-40">
          <mxGeometry relative="1" as="geometry" />
        </mxCell>
        <mxCell id="b0oqLk7NNYaLOgdpKb4l-45" value="" style="edgeStyle=orthogonalEdgeStyle;rounded=0;orthogonalLoop=1;jettySize=auto;html=1;fontSize=12;" edge="1" parent="1c1d494c118603dd-4" source="b0oqLk7NNYaLOgdpKb4l-42" target="b0oqLk7NNYaLOgdpKb4l-44">
          <mxGeometry relative="1" as="geometry" />
        </mxCell>
        <mxCell id="b0oqLk7NNYaLOgdpKb4l-42" value="草稿相关" style="rounded=1;whiteSpace=wrap;html=1;shadow=0;comic=0;labelBackgroundColor=none;strokeWidth=1;fontFamily=Verdana;fontSize=12;align=center;arcSize=50;" vertex="1" parent="1c1d494c118603dd-4">
          <mxGeometry x="55" y="800" width="130" height="30" as="geometry" />
        </mxCell>
        <mxCell id="b0oqLk7NNYaLOgdpKb4l-43" value="" style="edgeStyle=orthogonalEdgeStyle;rounded=0;orthogonalLoop=1;jettySize=auto;html=1;fontSize=12;" edge="1" parent="1c1d494c118603dd-4" source="b0oqLk7NNYaLOgdpKb4l-40" target="b0oqLk7NNYaLOgdpKb4l-42">
          <mxGeometry relative="1" as="geometry" />
        </mxCell>
        <mxCell id="b0oqLk7NNYaLOgdpKb4l-44" value="input展示相关设置" style="rounded=1;whiteSpace=wrap;html=1;shadow=0;comic=0;labelBackgroundColor=none;strokeWidth=1;fontFamily=Verdana;fontSize=12;align=center;arcSize=50;" vertex="1" parent="1c1d494c118603dd-4">
          <mxGeometry x="55" y="880" width="130" height="30" as="geometry" />
        </mxCell>
        <mxCell id="b0oqLk7NNYaLOgdpKb4l-22" value="" style="edgeStyle=orthogonalEdgeStyle;rounded=0;orthogonalLoop=1;jettySize=auto;html=1;fontSize=12;" edge="1" parent="1c1d494c118603dd-1" source="b0oqLk7NNYaLOgdpKb4l-19" target="b0oqLk7NNYaLOgdpKb4l-21">
          <mxGeometry relative="1" as="geometry">
            <Array as="points">
              <mxPoint x="250" y="645" />
              <mxPoint x="250" y="155" />
            </Array>
          </mxGeometry>
        </mxCell>
        <mxCell id="b0oqLk7NNYaLOgdpKb4l-12" value="viewWillAppear" style="swimlane;html=1;startSize=20;" vertex="1" parent="1c1d494c118603dd-1">
          <mxGeometry x="500" y="20" width="290" height="960" as="geometry" />
        </mxCell>
        <mxCell id="b0oqLk7NNYaLOgdpKb4l-50" value="" style="edgeStyle=orthogonalEdgeStyle;rounded=0;orthogonalLoop=1;jettySize=auto;html=1;fontSize=12;" edge="1" parent="b0oqLk7NNYaLOgdpKb4l-12" source="b0oqLk7NNYaLOgdpKb4l-47" target="b0oqLk7NNYaLOgdpKb4l-49">
          <mxGeometry relative="1" as="geometry" />
        </mxCell>
        <mxCell id="b0oqLk7NNYaLOgdpKb4l-47" value="未读消息处理" style="rounded=1;whiteSpace=wrap;html=1;shadow=0;comic=0;labelBackgroundColor=none;strokeWidth=1;fontFamily=Verdana;fontSize=12;align=center;arcSize=50;" vertex="1" parent="b0oqLk7NNYaLOgdpKb4l-12">
          <mxGeometry x="60" y="60" width="130" height="30" as="geometry" />
        </mxCell>
        <mxCell id="b0oqLk7NNYaLOgdpKb4l-49" value="未读消息处理" style="rounded=1;whiteSpace=wrap;html=1;shadow=0;comic=0;labelBackgroundColor=none;strokeWidth=1;fontFamily=Verdana;fontSize=12;align=center;arcSize=50;" vertex="1" parent="b0oqLk7NNYaLOgdpKb4l-12">
          <mxGeometry x="60" y="130" width="130" height="30" as="geometry" />
        </mxCell>
        <mxCell id="b0oqLk7NNYaLOgdpKb4l-56" value="" style="edgeStyle=orthogonalEdgeStyle;rounded=0;orthogonalLoop=1;jettySize=auto;html=1;fontSize=12;" edge="1" parent="b0oqLk7NNYaLOgdpKb4l-12" source="b0oqLk7NNYaLOgdpKb4l-53" target="b0oqLk7NNYaLOgdpKb4l-55">
          <mxGeometry relative="1" as="geometry" />
        </mxCell>
        <mxCell id="b0oqLk7NNYaLOgdpKb4l-53" value="提示音相关" style="rounded=1;whiteSpace=wrap;html=1;shadow=0;comic=0;labelBackgroundColor=none;strokeWidth=1;fontFamily=Verdana;fontSize=12;align=center;arcSize=50;" vertex="1" parent="b0oqLk7NNYaLOgdpKb4l-12">
          <mxGeometry x="60" y="350" width="130" height="30" as="geometry" />
        </mxCell>
        <mxCell id="b0oqLk7NNYaLOgdpKb4l-58" value="" style="edgeStyle=orthogonalEdgeStyle;rounded=0;orthogonalLoop=1;jettySize=auto;html=1;fontSize=12;" edge="1" parent="b0oqLk7NNYaLOgdpKb4l-12" source="b0oqLk7NNYaLOgdpKb4l-55" target="b0oqLk7NNYaLOgdpKb4l-57">
          <mxGeometry relative="1" as="geometry" />
        </mxCell>
        <mxCell id="b0oqLk7NNYaLOgdpKb4l-55" value="数据源滑动到合适位置" style="rounded=1;whiteSpace=wrap;html=1;shadow=0;comic=0;labelBackgroundColor=none;strokeWidth=1;fontFamily=Verdana;fontSize=12;align=center;arcSize=50;" vertex="1" parent="b0oqLk7NNYaLOgdpKb4l-12">
          <mxGeometry x="60" y="460" width="130" height="30" as="geometry" />
        </mxCell>
        <mxCell id="b0oqLk7NNYaLOgdpKb4l-57" value="扩展管理相关" style="rounded=1;whiteSpace=wrap;html=1;shadow=0;comic=0;labelBackgroundColor=none;strokeWidth=1;fontFamily=Verdana;fontSize=12;align=center;arcSize=50;" vertex="1" parent="b0oqLk7NNYaLOgdpKb4l-12">
          <mxGeometry x="60" y="570" width="130" height="30" as="geometry" />
        </mxCell>
        <mxCell id="b0oqLk7NNYaLOgdpKb4l-48" value="" style="edgeStyle=orthogonalEdgeStyle;rounded=0;orthogonalLoop=1;jettySize=auto;html=1;fontSize=12;" edge="1" parent="1c1d494c118603dd-1" source="b0oqLk7NNYaLOgdpKb4l-44" target="b0oqLk7NNYaLOgdpKb4l-47">
          <mxGeometry relative="1" as="geometry">
            <Array as="points">
              <mxPoint x="500" y="915" />
              <mxPoint x="500" y="95" />
            </Array>
          </mxGeometry>
        </mxCell>
        <mxCell id="b0oqLk7NNYaLOgdpKb4l-60" value="" style="edgeStyle=orthogonalEdgeStyle;rounded=0;orthogonalLoop=1;jettySize=auto;html=1;fontSize=12;" edge="1" parent="1c1d494c118603dd-1" source="b0oqLk7NNYaLOgdpKb4l-57" target="b0oqLk7NNYaLOgdpKb4l-59">
          <mxGeometry relative="1" as="geometry">
            <Array as="points">
              <mxPoint x="790" y="605" />
              <mxPoint x="790" y="105" />
            </Array>
          </mxGeometry>
        </mxCell>
        <mxCell id="b0oqLk7NNYaLOgdpKb4l-46" value="viewWillDisapear" style="swimlane;html=1;startSize=20;" vertex="1" parent="1c1d494c118603dd-1">
          <mxGeometry x="790" y="20" width="290" height="960" as="geometry" />
        </mxCell>
        <mxCell id="b0oqLk7NNYaLOgdpKb4l-62" value="" style="edgeStyle=orthogonalEdgeStyle;rounded=0;orthogonalLoop=1;jettySize=auto;html=1;fontSize=12;" edge="1" parent="b0oqLk7NNYaLOgdpKb4l-46" source="b0oqLk7NNYaLOgdpKb4l-59" target="b0oqLk7NNYaLOgdpKb4l-61">
          <mxGeometry relative="1" as="geometry" />
        </mxCell>
        <mxCell id="b0oqLk7NNYaLOgdpKb4l-59" value="inputBar Control 状态同步" style="rounded=1;whiteSpace=wrap;html=1;shadow=0;comic=0;labelBackgroundColor=none;strokeWidth=1;fontFamily=Verdana;fontSize=12;align=center;arcSize=50;" vertex="1" parent="b0oqLk7NNYaLOgdpKb4l-46">
          <mxGeometry x="50" y="70" width="170" height="30" as="geometry" />
        </mxCell>
        <mxCell id="b0oqLk7NNYaLOgdpKb4l-61" value="链接状态代理设置为self" style="rounded=1;whiteSpace=wrap;html=1;shadow=0;comic=0;labelBackgroundColor=none;strokeWidth=1;fontFamily=Verdana;fontSize=12;align=center;arcSize=50;" vertex="1" parent="b0oqLk7NNYaLOgdpKb4l-46">
          <mxGeometry x="50" y="180" width="170" height="30" as="geometry" />
        </mxCell>
        <mxCell id="b0oqLk7NNYaLOgdpKb4l-63" value="viewDidAppear" style="swimlane;html=1;startSize=20;" vertex="1" parent="1c1d494c118603dd-1">
          <mxGeometry x="1080" y="20" width="270" height="960" as="geometry" />
        </mxCell>
        <mxCell id="b0oqLk7NNYaLOgdpKb4l-78" value="" style="edgeStyle=orthogonalEdgeStyle;rounded=0;orthogonalLoop=1;jettySize=auto;html=1;fontSize=12;" edge="1" parent="b0oqLk7NNYaLOgdpKb4l-63" source="b0oqLk7NNYaLOgdpKb4l-75" target="b0oqLk7NNYaLOgdpKb4l-77">
          <mxGeometry relative="1" as="geometry" />
        </mxCell>
        <mxCell id="b0oqLk7NNYaLOgdpKb4l-75" value="sync 读取状态" style="rounded=1;whiteSpace=wrap;html=1;shadow=0;comic=0;labelBackgroundColor=none;strokeWidth=1;fontFamily=Verdana;fontSize=12;align=center;arcSize=50;" vertex="1" parent="b0oqLk7NNYaLOgdpKb4l-63">
          <mxGeometry x="60" y="60" width="170" height="30" as="geometry" />
        </mxCell>
        <mxCell id="b0oqLk7NNYaLOgdpKb4l-80" value="" style="edgeStyle=orthogonalEdgeStyle;rounded=0;orthogonalLoop=1;jettySize=auto;html=1;fontSize=12;" edge="1" parent="b0oqLk7NNYaLOgdpKb4l-63" source="b0oqLk7NNYaLOgdpKb4l-77" target="b0oqLk7NNYaLOgdpKb4l-79">
          <mxGeometry relative="1" as="geometry" />
        </mxCell>
        <mxCell id="b0oqLk7NNYaLOgdpKb4l-77" value="CollectionView 手势 移除" style="rounded=1;whiteSpace=wrap;html=1;shadow=0;comic=0;labelBackgroundColor=none;strokeWidth=1;fontFamily=Verdana;fontSize=12;align=center;arcSize=50;" vertex="1" parent="b0oqLk7NNYaLOgdpKb4l-63">
          <mxGeometry x="60" y="170" width="170" height="30" as="geometry" />
        </mxCell>
        <mxCell id="b0oqLk7NNYaLOgdpKb4l-79" value="提示音状态重置" style="rounded=1;whiteSpace=wrap;html=1;shadow=0;comic=0;labelBackgroundColor=none;strokeWidth=1;fontFamily=Verdana;fontSize=12;align=center;arcSize=50;" vertex="1" parent="b0oqLk7NNYaLOgdpKb4l-63">
          <mxGeometry x="60" y="280" width="170" height="30" as="geometry" />
        </mxCell>
        <mxCell id="b0oqLk7NNYaLOgdpKb4l-86" value="" style="edgeStyle=orthogonalEdgeStyle;rounded=0;orthogonalLoop=1;jettySize=auto;html=1;fontSize=12;" edge="1" parent="b0oqLk7NNYaLOgdpKb4l-63" source="b0oqLk7NNYaLOgdpKb4l-83" target="b0oqLk7NNYaLOgdpKb4l-85">
          <mxGeometry relative="1" as="geometry" />
        </mxCell>
        <mxCell id="b0oqLk7NNYaLOgdpKb4l-83" value="停止音频录制" style="rounded=1;whiteSpace=wrap;html=1;shadow=0;comic=0;labelBackgroundColor=none;strokeWidth=1;fontFamily=Verdana;fontSize=12;align=center;arcSize=50;" vertex="1" parent="b0oqLk7NNYaLOgdpKb4l-63">
          <mxGeometry x="60" y="500" width="170" height="30" as="geometry" />
        </mxCell>
        <mxCell id="b0oqLk7NNYaLOgdpKb4l-88" value="" style="edgeStyle=orthogonalEdgeStyle;rounded=0;orthogonalLoop=1;jettySize=auto;html=1;fontSize=12;" edge="1" parent="b0oqLk7NNYaLOgdpKb4l-63" source="b0oqLk7NNYaLOgdpKb4l-85" target="b0oqLk7NNYaLOgdpKb4l-87">
          <mxGeometry relative="1" as="geometry" />
        </mxCell>
        <mxCell id="b0oqLk7NNYaLOgdpKb4l-85" value="清空链接状态回调" style="rounded=1;whiteSpace=wrap;html=1;shadow=0;comic=0;labelBackgroundColor=none;strokeWidth=1;fontFamily=Verdana;fontSize=12;align=center;arcSize=50;" vertex="1" parent="b0oqLk7NNYaLOgdpKb4l-63">
          <mxGeometry x="60" y="610" width="170" height="30" as="geometry" />
        </mxCell>
        <mxCell id="b0oqLk7NNYaLOgdpKb4l-87" value="扩展管理相关" style="rounded=1;whiteSpace=wrap;html=1;shadow=0;comic=0;labelBackgroundColor=none;strokeWidth=1;fontFamily=Verdana;fontSize=12;align=center;arcSize=50;" vertex="1" parent="b0oqLk7NNYaLOgdpKb4l-63">
          <mxGeometry x="60" y="720" width="170" height="30" as="geometry" />
        </mxCell>
        <mxCell id="b0oqLk7NNYaLOgdpKb4l-67" value="viewDidAppear" style="swimlane;html=1;startSize=20;" vertex="1" parent="1c1d494c118603dd-1">
          <mxGeometry x="1350" y="20" width="270" height="960" as="geometry" />
        </mxCell>
        <mxCell id="b0oqLk7NNYaLOgdpKb4l-89" value="数据源停止数据监听" style="rounded=1;whiteSpace=wrap;html=1;shadow=0;comic=0;labelBackgroundColor=none;strokeWidth=1;fontFamily=Verdana;fontSize=12;align=center;arcSize=50;" vertex="1" parent="b0oqLk7NNYaLOgdpKb4l-67">
          <mxGeometry x="50" y="70" width="170" height="30" as="geometry" />
        </mxCell>
        <mxCell id="b0oqLk7NNYaLOgdpKb4l-71" value="dealloc" style="swimlane;html=1;startSize=20;" vertex="1" parent="1c1d494c118603dd-1">
          <mxGeometry x="1620" y="20" width="270" height="960" as="geometry" />
        </mxCell>
        <mxCell id="b0oqLk7NNYaLOgdpKb4l-96" value="" style="edgeStyle=orthogonalEdgeStyle;rounded=0;orthogonalLoop=1;jettySize=auto;html=1;fontSize=12;" edge="1" parent="b0oqLk7NNYaLOgdpKb4l-71" source="b0oqLk7NNYaLOgdpKb4l-93" target="b0oqLk7NNYaLOgdpKb4l-95">
          <mxGeometry relative="1" as="geometry" />
        </mxCell>
        <mxCell id="b0oqLk7NNYaLOgdpKb4l-93" value="推出讨论组 推出会话" style="rounded=1;whiteSpace=wrap;html=1;shadow=0;comic=0;labelBackgroundColor=none;strokeWidth=1;fontFamily=Verdana;fontSize=12;align=center;arcSize=50;" vertex="1" parent="b0oqLk7NNYaLOgdpKb4l-71">
          <mxGeometry x="30" y="180" width="170" height="30" as="geometry" />
        </mxCell>
        <mxCell id="b0oqLk7NNYaLOgdpKb4l-95" value="停止计时器等" style="rounded=1;whiteSpace=wrap;html=1;shadow=0;comic=0;labelBackgroundColor=none;strokeWidth=1;fontFamily=Verdana;fontSize=12;align=center;arcSize=50;" vertex="1" parent="b0oqLk7NNYaLOgdpKb4l-71">
          <mxGeometry x="30" y="290" width="170" height="30" as="geometry" />
        </mxCell>
        <mxCell id="b0oqLk7NNYaLOgdpKb4l-76" value="" style="edgeStyle=orthogonalEdgeStyle;rounded=0;orthogonalLoop=1;jettySize=auto;html=1;fontSize=12;" edge="1" parent="1c1d494c118603dd-1" source="b0oqLk7NNYaLOgdpKb4l-61" target="b0oqLk7NNYaLOgdpKb4l-75">
          <mxGeometry relative="1" as="geometry">
            <Array as="points">
              <mxPoint x="1080" y="215" />
              <mxPoint x="1080" y="95" />
            </Array>
          </mxGeometry>
        </mxCell>
        <mxCell id="b0oqLk7NNYaLOgdpKb4l-90" value="" style="edgeStyle=orthogonalEdgeStyle;rounded=0;orthogonalLoop=1;jettySize=auto;html=1;fontSize=12;" edge="1" parent="1c1d494c118603dd-1" source="b0oqLk7NNYaLOgdpKb4l-87" target="b0oqLk7NNYaLOgdpKb4l-89">
          <mxGeometry relative="1" as="geometry">
            <Array as="points">
              <mxPoint x="1350" y="755" />
              <mxPoint x="1350" y="105" />
            </Array>
          </mxGeometry>
        </mxCell>
        <mxCell id="b0oqLk7NNYaLOgdpKb4l-16" value="" style="edgeStyle=orthogonalEdgeStyle;rounded=0;orthogonalLoop=1;jettySize=auto;html=1;fontSize=12;" edge="1" parent="1" source="b0oqLk7NNYaLOgdpKb4l-13" target="b0oqLk7NNYaLOgdpKb4l-15">
          <mxGeometry relative="1" as="geometry" />
        </mxCell>
        <mxCell id="b0oqLk7NNYaLOgdpKb4l-13" value="数据源初始化" style="rounded=1;whiteSpace=wrap;html=1;shadow=0;comic=0;labelBackgroundColor=none;strokeWidth=1;fontFamily=Verdana;fontSize=12;align=center;arcSize=50;" vertex="1" parent="1">
          <mxGeometry x="90" y="410" width="100" height="30" as="geometry" />
        </mxCell>
        <mxCell id="b0oqLk7NNYaLOgdpKb4l-14" value="" style="edgeStyle=orthogonalEdgeStyle;rounded=0;orthogonalLoop=1;jettySize=auto;html=1;fontSize=12;" edge="1" parent="1" source="b0oqLk7NNYaLOgdpKb4l-10" target="b0oqLk7NNYaLOgdpKb4l-13">
          <mxGeometry relative="1" as="geometry" />
        </mxCell>
        <mxCell id="b0oqLk7NNYaLOgdpKb4l-26" value="" style="edgeStyle=orthogonalEdgeStyle;rounded=0;orthogonalLoop=1;jettySize=auto;html=1;fontSize=12;" edge="1" parent="1" source="b0oqLk7NNYaLOgdpKb4l-23" target="b0oqLk7NNYaLOgdpKb4l-25">
          <mxGeometry relative="1" as="geometry" />
        </mxCell>
        <mxCell id="b0oqLk7NNYaLOgdpKb4l-23" value="聊天view 初始化" style="rounded=1;whiteSpace=wrap;html=1;shadow=0;comic=0;labelBackgroundColor=none;strokeWidth=1;fontFamily=Verdana;fontSize=12;align=center;arcSize=50;" vertex="1" parent="1">
          <mxGeometry x="360" y="220" width="100" height="30" as="geometry" />
        </mxCell>
        <mxCell id="b0oqLk7NNYaLOgdpKb4l-24" value="" style="edgeStyle=orthogonalEdgeStyle;rounded=0;orthogonalLoop=1;jettySize=auto;html=1;fontSize=12;" edge="1" parent="1" source="b0oqLk7NNYaLOgdpKb4l-21" target="b0oqLk7NNYaLOgdpKb4l-23">
          <mxGeometry relative="1" as="geometry" />
        </mxCell>
        <mxCell id="b0oqLk7NNYaLOgdpKb4l-54" value="" style="edgeStyle=orthogonalEdgeStyle;rounded=0;orthogonalLoop=1;jettySize=auto;html=1;fontSize=12;" edge="1" parent="1" source="b0oqLk7NNYaLOgdpKb4l-51" target="b0oqLk7NNYaLOgdpKb4l-53">
          <mxGeometry relative="1" as="geometry" />
        </mxCell>
        <mxCell id="b0oqLk7NNYaLOgdpKb4l-51" value="CollectionView 手势" style="rounded=1;whiteSpace=wrap;html=1;shadow=0;comic=0;labelBackgroundColor=none;strokeWidth=1;fontFamily=Verdana;fontSize=12;align=center;arcSize=50;" vertex="1" parent="1">
          <mxGeometry x="600" y="280" width="130" height="30" as="geometry" />
        </mxCell>
        <mxCell id="b0oqLk7NNYaLOgdpKb4l-52" value="" style="edgeStyle=orthogonalEdgeStyle;rounded=0;orthogonalLoop=1;jettySize=auto;html=1;fontSize=12;" edge="1" parent="1" source="b0oqLk7NNYaLOgdpKb4l-49" target="b0oqLk7NNYaLOgdpKb4l-51">
          <mxGeometry relative="1" as="geometry" />
        </mxCell>
        <mxCell id="b0oqLk7NNYaLOgdpKb4l-84" value="" style="edgeStyle=orthogonalEdgeStyle;rounded=0;orthogonalLoop=1;jettySize=auto;html=1;fontSize=12;" edge="1" parent="1" source="b0oqLk7NNYaLOgdpKb4l-81" target="b0oqLk7NNYaLOgdpKb4l-83">
          <mxGeometry relative="1" as="geometry" />
        </mxCell>
        <mxCell id="b0oqLk7NNYaLOgdpKb4l-81" value="保存草稿" style="rounded=1;whiteSpace=wrap;html=1;shadow=0;comic=0;labelBackgroundColor=none;strokeWidth=1;fontFamily=Verdana;fontSize=12;align=center;arcSize=50;" vertex="1" parent="1">
          <mxGeometry x="1180" y="430" width="170" height="30" as="geometry" />
        </mxCell>
        <mxCell id="b0oqLk7NNYaLOgdpKb4l-82" value="" style="edgeStyle=orthogonalEdgeStyle;rounded=0;orthogonalLoop=1;jettySize=auto;html=1;fontSize=12;" edge="1" parent="1" source="b0oqLk7NNYaLOgdpKb4l-79" target="b0oqLk7NNYaLOgdpKb4l-81">
          <mxGeometry relative="1" as="geometry" />
        </mxCell>
        <mxCell id="b0oqLk7NNYaLOgdpKb4l-94" value="" style="edgeStyle=orthogonalEdgeStyle;rounded=0;orthogonalLoop=1;jettySize=auto;html=1;fontSize=12;" edge="1" parent="1" source="b0oqLk7NNYaLOgdpKb4l-91" target="b0oqLk7NNYaLOgdpKb4l-93">
          <mxGeometry relative="1" as="geometry" />
        </mxCell>
        <mxCell id="b0oqLk7NNYaLOgdpKb4l-91" value="停止所有通知监听" style="rounded=1;whiteSpace=wrap;html=1;shadow=0;comic=0;labelBackgroundColor=none;strokeWidth=1;fontFamily=Verdana;fontSize=12;align=center;arcSize=50;" vertex="1" parent="1">
          <mxGeometry x="1690" y="110" width="170" height="30" as="geometry" />
        </mxCell>
        <mxCell id="b0oqLk7NNYaLOgdpKb4l-92" value="" style="edgeStyle=orthogonalEdgeStyle;rounded=0;orthogonalLoop=1;jettySize=auto;html=1;fontSize=12;" edge="1" parent="1" source="b0oqLk7NNYaLOgdpKb4l-89" target="b0oqLk7NNYaLOgdpKb4l-91">
          <mxGeometry relative="1" as="geometry" />
        </mxCell>
      </root>
    </mxGraphModel>
  </diagram>
</mxfile>
